<?xml version="1.0" standalone="no"?>
<!DOCTYPE svg PUBLIC "-//W3C//DTD SVG 20010904//EN"
 "http://www.w3.org/TR/2001/REC-SVG-20010904/DTD/svg10.dtd">
<svg version="1.0" xmlns="http://www.w3.org/2000/svg"
 width="500.000000pt" height="500.000000pt" viewBox="0 0 500.000000 500.000000"
 preserveAspectRatio="xMidYMid meet">

<g transform="translate(0.000000,500.000000) scale(0.100000,-0.100000)"
fill="#000000" stroke="none">
<path d="M4457 4424 c-11 -12 -8 -62 5 -70 8 -5 9 -2 5 9 -8 22 9 22 21 1 7
-12 9 -6 8 22 -1 37 -21 56 -39 38z m31 -22 c2 -7 -3 -12 -12 -12 -9 0 -16 7
-16 16 0 17 22 14 28 -4z"/>
<path d="M4550 4401 c0 -11 -3 -27 -6 -36 -6 -13 -1 -16 22 -13 24 3 29 8 31
36 2 28 0 32 -22 32 -18 0 -25 -5 -25 -19z m40 -1 c0 -5 -7 -10 -15 -10 -8 0
-15 5 -15 10 0 6 7 10 15 10 8 0 15 -4 15 -10z m0 -30 c0 -5 -7 -10 -15 -10
-8 0 -15 5 -15 10 0 6 7 10 15 10 8 0 15 -4 15 -10z"/>
<path d="M4367 4389 c-4 -13 -7 -33 -7 -44 0 -15 2 -17 9 -6 5 8 18 12 30 8
27 -7 26 1 -2 37 l-24 29 -6 -24z m28 -19 c3 -5 -1 -10 -10 -10 -9 0 -13 5
-10 10 3 6 8 10 10 10 2 0 7 -4 10 -10z"/>
<path d="M4646 4384 c-9 -8 -16 -19 -16 -24 0 -12 29 -40 42 -40 6 0 1 8 -11
18 -19 15 -20 19 -8 36 21 28 51 14 43 -20 -5 -17 -3 -23 4 -19 23 14 3 65
-26 65 -7 0 -20 -7 -28 -16z"/>
<path d="M4271 4371 c-12 -8 -12 -14 -1 -40 13 -34 31 -39 49 -17 10 12 9 20
-4 40 -19 28 -23 30 -44 17z m29 -10 c0 -12 -20 -25 -27 -18 -7 7 6 27 18 27
5 0 9 -4 9 -9z m15 -30 c7 -12 -12 -24 -25 -16 -11 7 -4 25 10 25 5 0 11 -4
15 -9z"/>
<path d="M4750 4338 c0 -8 5 -19 12 -26 17 -17 2 -28 -17 -12 -11 9 -15 9 -15
1 0 -17 29 -26 42 -13 8 8 8 16 -2 27 -17 21 -5 31 16 14 15 -12 17 -12 12 1
-6 19 -48 26 -48 8z"/>
<path d="M4821 4271 c-31 -16 -32 -18 -12 -24 11 -3 21 -13 21 -24 1 -12 7 -7
20 17 31 56 27 61 -29 31z m29 -11 c0 -5 -4 -10 -10 -10 -5 0 -10 5 -10 10 0
6 5 10 10 10 6 0 10 -4 10 -10z"/>
<path d="M4920 4163 c-14 -9 -27 -18 -28 -19 -2 -1 1 -11 7 -21 9 -14 11 -15
9 -2 -2 9 8 26 22 37 30 26 24 28 -10 5z"/>
<path d="M4948 4097 c-28 -11 -36 -31 -18 -42 6 -3 7 1 4 9 -6 16 20 24 29 9
2 -5 2 -2 1 5 -2 6 3 12 11 12 8 0 15 -5 15 -12 0 -6 2 -9 5 -6 7 7 -5 38 -14
37 -3 -1 -18 -6 -33 -12z"/>
<path d="M4485 4089 c-22 -5 -67 -13 -100 -19 -33 -6 -86 -23 -119 -39 l-58
-29 -42 24 c-52 30 -135 31 -260 4 -92 -20 -121 -34 -168 -78 l-27 -25 -31 26
c-53 45 -95 52 -238 38 -70 -6 -185 -16 -257 -22 -71 -5 -137 -13 -145 -16 -8
-3 -38 -5 -67 -4 -28 2 -68 -3 -87 -10 -32 -11 -36 -17 -41 -58 -4 -25 -10
-64 -14 -86 l-7 -40 -24 84 c-13 46 -30 85 -36 88 -12 4 -380 -25 -611 -49
l-112 -11 -37 -98 c-21 -55 -39 -97 -41 -95 -3 2 -33 162 -33 174 0 6 -166 -1
-260 -11 -101 -12 -105 -13 -108 -37 -1 -14 -5 -41 -8 -60 l-7 -35 -17 50
c-14 43 -21 50 -50 56 -19 4 -73 3 -120 -1 -47 -5 -114 -11 -150 -14 -36 -3
-128 -10 -205 -16 -77 -6 -147 -14 -155 -16 -8 -3 -60 -7 -114 -10 -115 -5
-136 -9 -136 -31 0 -11 -6 -14 -24 -9 -59 15 -402 4 -436 -14 -10 -6 -23 -77
-47 -276 -18 -147 -32 -268 -31 -270 8 -7 313 28 350 40 24 8 60 18 81 21 31
6 37 4 37 -10 0 -14 7 -16 38 -11 20 3 69 8 107 12 39 3 73 8 78 11 4 2 49 6
100 8 151 6 430 34 436 44 3 5 20 11 36 13 27 3 30 7 35 48 l5 45 19 -53 18
-53 67 6 c127 11 161 17 161 26 0 5 8 9 19 9 22 0 25 11 42 163 7 59 14 106
15 104 2 -2 13 -63 24 -137 11 -74 22 -136 24 -138 10 -9 220 21 233 34 8 8
46 99 83 202 38 103 69 178 69 167 0 -11 -10 -100 -23 -199 l-23 -178 46 6
c25 3 138 13 251 22 113 9 206 18 208 20 2 1 8 38 13 81 17 137 18 138 50 44
41 -119 34 -115 159 -106 57 3 108 9 113 12 5 3 61 7 125 8 98 3 118 7 130 22
10 15 14 15 21 4 7 -11 31 -12 147 -2 179 16 229 30 287 82 l47 41 30 -26 c37
-31 94 -41 230 -41 93 0 111 3 157 26 l53 26 141 -11 c202 -14 306 13 373 97
27 34 31 47 30 100 0 77 -22 120 -72 146 l-37 20 47 1 c46 0 47 0 54 38 3 20
10 54 14 74 7 32 5 39 -15 52 -49 32 -133 42 -210 25z m176 -39 c19 -11 21
-17 15 -63 -4 -29 -9 -53 -10 -54 -1 -2 -30 -6 -63 -9 l-60 -7 -6 41 c-4 24
-14 42 -24 46 -26 10 -67 -26 -71 -62 -3 -25 2 -33 25 -45 15 -8 50 -18 78
-22 69 -10 99 -28 120 -71 32 -68 9 -148 -57 -197 -57 -43 -243 -62 -314 -32
-33 14 -35 16 -29 52 12 72 13 73 58 73 23 0 51 3 62 6 18 4 22 -1 30 -38 9
-36 14 -43 37 -46 53 -6 89 65 52 102 -8 9 -27 19 -42 22 -81 18 -104 27 -131
50 -88 74 -29 208 111 254 68 22 177 22 219 0z m-508 -47 c15 -7 39 -32 55
-55 25 -38 27 -50 27 -132 -1 -73 -5 -101 -24 -144 -46 -104 -133 -152 -272
-152 -125 0 -179 66 -179 217 0 153 91 262 238 282 66 9 116 4 155 -16z m-523
-51 c103 -51 113 -287 17 -390 -51 -55 -100 -73 -239 -88 -73 -7 -140 -14
-149 -14 -13 0 -11 29 15 243 16 133 31 244 33 246 5 7 130 18 213 20 54 1 85
-4 110 -17z m-410 -28 c0 -22 -49 -422 -55 -451 -4 -19 -14 -22 -80 -28 -42
-4 -79 -5 -82 -2 -5 6 40 409 52 464 5 23 25 28 118 31 37 2 47 -1 47 -14z
m-250 -31 c-1 -46 -56 -452 -63 -459 -3 -3 -44 -9 -90 -11 l-85 -6 -53 162
c-34 102 -56 155 -60 144 -3 -10 -14 -86 -24 -170 l-18 -151 -33 -4 c-29 -3
-34 -1 -33 17 1 41 55 464 60 470 3 2 45 6 94 7 l88 3 51 -162 c38 -121 53
-157 58 -140 3 12 14 85 23 162 9 77 18 146 20 153 2 6 18 12 35 12 26 0 30
-3 30 -27z m-464 -35 c-3 -13 -6 -26 -6 -29 0 -4 -34 -10 -75 -14 -41 -4 -77
-10 -79 -13 -2 -4 -7 -37 -11 -74 l-7 -67 65 6 64 6 -5 -32 c-4 -27 -8 -31
-37 -31 -18 0 -46 -3 -63 -6 -26 -5 -31 -12 -36 -45 -3 -22 -9 -58 -12 -80
l-6 -42 76 8 76 7 0 -31 c0 -17 -3 -31 -7 -31 -5 -1 -75 -7 -158 -14 -82 -8
-152 -12 -154 -10 -3 3 45 425 54 470 4 19 15 22 117 31 62 5 135 11 162 11
46 2 48 1 42 -20z m-400 -100 c-19 -51 -59 -163 -91 -248 -31 -85 -59 -158
-63 -161 -4 -4 -45 -10 -93 -13 l-85 -7 -34 236 c-18 129 -31 238 -27 241 3 3
41 8 85 11 l80 6 6 -29 c3 -16 15 -85 26 -154 12 -68 23 -126 24 -128 2 -1 13
26 26 60 96 265 101 274 157 277 22 1 22 0 -11 -91z m-446 40 c0 -22 -59 -481
-62 -483 -2 -1 -42 -5 -90 -9 l-86 -7 -53 161 c-30 88 -56 160 -60 160 -3 0
-14 -75 -25 -167 l-19 -168 -36 -3 -35 -3 30 245 30 246 31 4 c16 3 57 7 91
10 l61 5 54 -169 c29 -93 54 -168 55 -167 2 2 44 328 44 341 0 4 28 11 58 15
6 0 12 -5 12 -11z m856 -35 c-3 -16 -10 -73 -16 -128 -17 -156 -9 -143 -90
-147 l-70 -3 0 35 c0 50 8 57 72 62 32 3 60 7 62 9 2 2 6 28 9 57 l6 54 -65
-4 c-61 -3 -65 -2 -60 17 3 11 6 30 6 42 0 23 15 27 113 31 37 2 38 1 33 -25z
m-1326 -23 c0 -32 -13 -37 -109 -42 -49 -3 -52 -8 -64 -107 l-5 -44 64 6 64 5
0 -28 c0 -31 -18 -40 -87 -40 -23 0 -44 -4 -47 -8 -3 -5 -8 -42 -12 -83 l-6
-75 76 4 c42 2 76 0 76 -4 0 -5 -3 -18 -6 -30 -5 -19 -17 -22 -160 -33 -85 -7
-157 -12 -158 -10 -4 4 54 482 59 487 2 2 68 9 147 16 78 8 149 14 156 15 7 0
12 -11 12 -29z m-400 -17 c0 -25 -60 -477 -64 -480 -2 -2 -38 -7 -80 -10 l-76
-6 1 34 c0 19 12 129 27 244 l27 210 50 6 c78 9 115 10 115 2z m-349 -33 c90
-25 112 -130 41 -194 l-21 -18 29 -25 c77 -64 33 -188 -80 -228 -42 -15 -305
-44 -313 -34 -4 4 52 481 57 486 1 1 53 6 116 11 63 5 120 10 125 11 6 0 26
-4 46 -9z m765 -86 c-3 -8 -20 -14 -41 -14 -34 0 -35 1 -35 39 0 39 1 40 38
43 34 3 37 1 40 -25 2 -16 1 -35 -2 -43z m-22 -171 c-3 -27 -7 -48 -8 -49 0
-1 -18 -4 -38 -7 -42 -6 -44 -1 -32 61 6 30 12 34 72 41 10 1 12 -10 6 -46z"/>
<path d="M3997 3952 c-58 -64 -89 -324 -44 -369 49 -50 108 93 110 267 2 111
-23 149 -66 102z"/>
<path d="M3479 3913 c-13 -3 -20 -41 -39 -189 -12 -102 -20 -188 -17 -191 4
-3 18 -2 32 1 50 13 79 92 91 251 6 69 4 89 -10 110 -16 24 -24 27 -57 18z"/>
<path d="M309 3618 c0 -13 -4 -47 -8 -75 l-7 -53 28 0 c45 0 75 80 48 131 -16
28 -60 26 -61 -3z"/>
<path d="M274 3340 c-10 -97 -8 -101 39 -79 31 14 47 48 47 102 0 50 -13 67
-51 67 -26 0 -26 -2 -35 -90z"/>
<path d="M4954 4006 c-9 -24 0 -51 19 -54 12 -3 17 3 16 20 -1 17 -3 18 -6 5
-2 -9 -9 -15 -14 -12 -17 11 -9 36 14 45 l22 9 -23 0 c-12 1 -25 -5 -28 -13z"/>
<path d="M4960 3900 c0 -5 6 -7 14 -4 8 3 16 -2 19 -13 4 -14 5 -14 6 5 1 16
-5 22 -19 22 -11 0 -20 -4 -20 -10z"/>
<path d="M4968 3823 c29 -6 28 -19 -3 -27 -30 -8 -24 -26 8 -25 21 0 21 1 3 8
-19 7 -19 8 3 14 29 7 22 31 -10 34 -22 1 -22 1 -1 -4z"/>
<path d="M4914 3713 c-5 -19 -2 -30 11 -40 24 -17 30 -16 49 3 23 22 20 31
-14 49 -38 20 -38 20 -46 -12z m55 -2 c12 -8 12 -12 2 -25 -15 -18 -51 -5 -51
19 0 17 27 20 49 6z"/>
<path d="M4870 3635 c-20 -24 3 -44 30 -27 11 7 21 8 25 2 3 -5 -3 -13 -12
-19 -10 -6 -13 -11 -7 -11 19 0 34 24 24 40 -8 13 -13 13 -31 2 -27 -17 -40
-5 -15 14 11 8 15 14 9 14 -6 0 -16 -7 -23 -15z"/>
<path d="M2938 3086 c-12 -6 -32 -29 -43 -52 -12 -25 -31 -45 -47 -51 -20 -8
-36 -31 -64 -91 l-37 -80 -46 4 c-25 1 -55 6 -67 9 -33 10 -67 -30 -107 -125
-86 -207 -115 -334 -82 -370 20 -23 59 -26 74 -7 6 6 23 28 40 47 l30 35 29
-17 c17 -10 40 -18 51 -18 18 0 21 -6 21 -42 0 -24 -3 -73 -6 -110 l-7 -67
-28 14 c-39 21 -69 19 -96 -7 -21 -20 -24 -20 -41 -5 -23 21 -54 21 -121 1
-29 -8 -54 -14 -56 -12 -1 2 -7 17 -12 33 -5 17 -21 37 -36 45 -37 21 -70 0
-102 -64 -25 -50 -26 -50 -98 -67 -69 -17 -73 -17 -90 1 -29 33 -92 43 -225
37 -67 -3 -125 -1 -128 4 -10 17 -45 9 -68 -16 -13 -14 -51 -39 -85 -56 -69
-34 -57 -38 -139 34 -64 56 -99 49 -211 -44 l-35 -29 -12 28 c-28 67 -102 88
-254 73 -162 -16 -291 -68 -368 -146 -46 -48 -52 -76 -27 -124 15 -30 65 -54
90 -45 27 11 3 -40 -37 -77 -43 -40 -47 -65 -18 -102 19 -24 20 -31 9 -97 -14
-93 -2 -114 69 -124 82 -11 90 -2 117 136 l17 85 106 54 c58 30 134 73 169 96
35 24 63 40 63 37 0 -3 -8 -31 -17 -62 -9 -32 -17 -94 -17 -142 -1 -71 3 -91
21 -121 56 -89 153 -77 270 34 51 48 54 49 67 31 8 -10 17 -34 21 -52 7 -39
46 -63 73 -45 9 5 26 7 37 3 25 -9 54 5 64 33 7 20 15 21 122 22 63 1 133 7
156 13 54 16 100 55 108 91 3 15 19 38 35 50 54 39 32 114 -38 136 -30 9 -20
21 23 29 40 8 71 -5 80 -34 3 -11 -4 -66 -15 -122 -29 -134 -31 -209 -7 -236
21 -23 100 -35 134 -19 25 11 45 63 33 87 -11 23 5 120 44 260 52 190 43 176
127 188 41 6 74 10 76 9 5 -6 -131 -286 -162 -332 -51 -76 -53 -106 -13 -149
42 -45 107 -59 139 -30 18 17 19 16 19 -14 0 -63 76 -96 119 -53 17 17 41 78
41 106 0 30 52 131 77 150 l28 23 -4 -56 c-4 -67 13 -128 39 -142 23 -12 91 2
108 23 5 6 17 59 27 117 23 146 18 137 83 150 31 7 66 14 77 16 20 5 21 1 17
-65 -6 -97 3 -135 42 -176 27 -28 41 -35 72 -35 55 1 116 31 177 89 l53 50 -4
-94 c-4 -92 -4 -94 23 -119 15 -14 38 -26 51 -26 12 0 65 27 117 60 60 39 104
60 123 60 16 0 62 14 103 31 67 28 74 29 90 15 34 -31 69 -19 94 30 9 17 24
34 33 38 20 8 17 10 38 -32 18 -36 69 -72 101 -72 63 1 210 118 277 222 72
113 99 265 62 344 -18 37 -128 130 -167 139 -28 7 -69 -11 -109 -48 -15 -14
-43 -38 -63 -53 l-35 -26 0 31 c0 35 -37 81 -65 81 -9 0 -30 -13 -46 -30 -17
-16 -49 -35 -72 -41 -65 -17 -180 -73 -204 -100 -49 -55 -31 -120 35 -123 18
0 30 -5 28 -11 -2 -5 -9 -36 -16 -68 -7 -31 -18 -61 -24 -66 -14 -10 -139 -41
-145 -35 -2 2 13 79 35 171 29 125 39 190 39 253 0 79 -1 85 -24 96 -48 24
-104 -35 -141 -149 l-12 -37 -73 60 c-85 70 -111 74 -174 32 l-42 -29 -40 20
c-39 19 -44 19 -167 4 -70 -9 -137 -19 -150 -23 l-24 -7 26 27 c13 15 28 41
31 57 5 21 11 29 21 25 24 -9 63 12 69 37 7 25 2 23 225 107 138 52 170 73
170 117 0 57 -75 90 -146 63 -15 -6 -29 -8 -31 -6 -3 3 13 58 34 123 l40 118
42 16 c55 20 81 43 81 72 0 64 -93 78 -221 33 -45 -16 -82 -23 -103 -19 l-34
5 6 64 c7 93 -30 139 -90 110z m50 -38 c18 -18 16 -42 -37 -312 -28 -138 -57
-289 -65 -337 -32 -175 -64 -241 -106 -219 -15 8 -20 21 -20 56 0 46 65 489
77 522 3 9 2 14 -2 9 -5 -4 -40 -87 -79 -185 -59 -147 -74 -177 -91 -177 -19
0 -20 6 -19 125 l2 125 -33 -70 c-19 -38 -41 -94 -50 -122 -18 -57 -31 -71
-47 -55 -13 13 34 241 59 284 24 42 38 36 36 -15 l-1 -42 32 65 c43 88 44 90
63 83 13 -5 15 -21 10 -110 l-5 -104 42 94 c24 52 61 128 82 168 22 41 48 94
57 119 36 95 66 127 95 98z m350 -140 c20 -20 14 -28 -47 -54 l-59 -26 -35
-96 c-42 -119 -70 -213 -64 -219 3 -2 39 6 81 18 73 21 77 21 96 4 50 -45 40
-51 -310 -180 -44 -17 -62 -9 -58 24 2 18 17 36 53 59 49 33 49 33 67 120 9
48 28 120 41 160 18 55 20 72 10 72 -7 0 -13 -4 -13 -9 0 -5 -16 -15 -36 -21
-42 -14 -57 -4 -52 31 9 64 281 162 326 117z m298 -683 c4 -8 -23 -111 -59
-228 -37 -116 -73 -239 -81 -272 -17 -71 -29 -155 -22 -155 2 0 26 11 53 24
56 28 130 49 143 41 5 -3 26 5 47 18 36 23 39 29 55 109 10 47 29 118 42 159
24 75 25 99 1 66 -7 -10 -28 -18 -51 -20 -33 -2 -39 1 -42 19 -9 66 284 182
327 130 18 -22 3 -39 -50 -56 -23 -8 -47 -23 -54 -34 -13 -21 -105 -286 -105
-304 0 -5 34 1 77 13 74 22 113 23 113 3 0 -5 4 -7 9 -4 4 3 11 26 14 51 4 25
20 79 36 121 23 58 28 82 21 100 -13 33 2 67 42 98 185 140 315 -3 229 -251
-35 -101 -75 -165 -146 -232 -46 -44 -59 -51 -94 -51 -45 0 -78 26 -87 70 -3
14 -7 30 -9 37 -3 8 -22 4 -62 -11 -32 -13 -107 -42 -168 -66 -60 -24 -126
-44 -146 -45 -25 -1 -65 -21 -132 -64 -82 -53 -99 -61 -116 -51 -30 15 -34 45
-22 151 22 190 122 528 187 627 17 25 42 29 50 7z m-1002 -102 c8 -20 -13
-184 -39 -310 -4 -19 -1 -21 22 -20 27 2 28 0 31 -47 3 -52 -11 -76 -60 -102
-17 -9 -28 -25 -33 -46 -27 -142 -38 -179 -55 -188 -22 -12 -46 -4 -54 17 -4
8 -1 44 6 79 6 35 9 67 6 70 -12 11 -116 -48 -127 -72 -12 -27 -26 -31 -35 -9
-3 8 -12 15 -21 15 -26 0 -18 53 15 98 16 23 50 87 75 143 66 147 143 298 177
347 23 33 35 42 57 42 18 0 31 -7 35 -17z m452 -24 c29 -32 8 -50 -97 -86
-135 -47 -137 -48 -148 -90 -18 -65 -18 -65 57 -61 54 2 67 0 67 -12 0 -10
-26 -24 -74 -41 -40 -14 -77 -32 -81 -40 -4 -8 -15 -57 -24 -109 -23 -137 -29
-155 -52 -155 -31 0 -40 68 -21 172 10 51 13 91 8 96 -6 6 -2 24 9 46 10 20
22 53 25 73 l7 38 -42 -15 c-65 -23 -90 -20 -90 10 0 27 52 68 132 103 27 11
49 29 53 41 3 12 15 26 25 31 15 8 21 6 29 -9 10 -18 13 -18 58 -4 39 11 90
24 134 32 3 1 14 -8 25 -20z m272 5 c38 -26 56 -73 55 -145 0 -118 -61 -258
-156 -356 -89 -93 -152 -99 -189 -15 -27 61 -21 148 20 267 23 67 30 101 25
128 -7 44 8 64 76 109 52 33 131 39 169 12z m-928 -29 c11 -10 20 -29 20 -41
0 -25 -5 -27 -85 -39 -22 -3 -74 -13 -116 -22 l-77 -15 -20 -102 c-11 -55 -25
-141 -31 -191 -12 -100 -33 -191 -48 -206 -5 -5 -17 -7 -26 -3 -24 9 -22 77 8
224 l25 124 -27 29 c-32 33 -74 57 -101 57 -10 0 -31 -14 -48 -31 -16 -17 -76
-62 -134 -101 -58 -39 -109 -75 -115 -80 -6 -6 34 -9 109 -6 100 2 120 1 129
-13 19 -30 0 -66 -43 -83 -86 -34 -280 -38 -338 -7 -33 18 -40 13 -53 -30 -14
-44 -35 -60 -51 -38 -20 30 11 213 68 409 l7 24 -43 -26 c-42 -24 -44 -29 -62
-103 -40 -172 -171 -345 -261 -345 -68 0 -107 91 -86 203 6 33 23 95 38 136
21 57 26 84 20 105 -12 44 8 76 71 113 42 26 65 33 106 33 47 0 55 -3 83 -35
17 -20 31 -40 31 -45 0 -5 29 5 65 21 91 43 213 62 357 57 73 -3 123 -10 133
-18 12 -10 34 -7 117 14 228 58 339 67 378 31z m-1426 -58 c116 -76 47 -170
-227 -307 l-166 -84 -11 -50 c-15 -69 -47 -139 -62 -134 -17 6 -21 55 -9 120
8 47 7 55 -10 74 -27 29 -24 49 14 78 25 20 36 39 50 90 9 35 17 69 17 75 0
19 -20 12 -47 -15 -31 -31 -68 -26 -85 12 -14 31 -5 50 40 80 97 66 426 106
496 61z m2073 -68 c-3 -23 -9 -44 -14 -48 -4 -4 -41 -5 -80 -3 -63 3 -73 6
-73 22 0 10 6 22 12 27 25 16 104 41 132 42 28 1 28 0 23 -40z"/>
<path d="M4267 2065 c-9 -19 -21 -35 -27 -35 -5 0 -10 -9 -10 -19 0 -18 74
-71 99 -71 17 0 13 112 -5 138 -21 31 -38 27 -57 -13z m43 -65 c0 -5 -4 -10
-10 -10 -5 0 -10 5 -10 10 0 6 5 10 10 10 6 0 10 -4 10 -10z"/>
<path d="M4165 1847 c-19 -63 -32 -187 -19 -187 20 0 83 62 119 116 20 30 35
57 33 59 -2 2 -29 17 -60 34 l-58 30 -15 -52z m85 -29 c0 -4 -16 -25 -35 -46
-29 -31 -34 -34 -35 -17 0 11 5 37 10 57 10 35 12 37 35 26 14 -6 25 -15 25
-20z"/>
<path d="M2466 1849 l-89 -172 62 34 c35 19 67 43 71 54 12 31 52 234 48 246
-2 5 -43 -68 -92 -162z"/>
<path d="M3279 2043 c-6 -15 -19 -36 -30 -46 -10 -10 -19 -22 -19 -27 0 -13
101 -70 112 -64 11 7 10 87 -2 118 -5 14 -18 30 -30 36 -17 9 -22 7 -31 -17z
m41 -83 c0 -5 -7 -7 -15 -4 -8 4 -15 8 -15 10 0 2 7 4 15 4 8 0 15 -4 15 -10z"/>
<path d="M3160 1767 c-32 -136 -21 -163 43 -107 35 30 97 118 97 136 0 7 -36
27 -112 62 -3 2 -16 -39 -28 -91z m77 30 l23 -13 -25 -37 c-40 -58 -54 -46
-39 32 7 35 10 36 41 18z"/>
<path d="M1260 1985 c0 -7 -11 -27 -25 -43 -14 -17 -25 -35 -25 -41 0 -11 86
-71 102 -71 13 0 9 125 -4 142 -18 22 -48 31 -48 13z m30 -95 c0 -5 -2 -10 -4
-10 -3 0 -8 5 -11 10 -3 6 -1 10 4 10 6 0 11 -4 11 -10z"/>
<path d="M1608 1966 c-32 -7 -61 -15 -64 -19 -9 -9 -47 -227 -41 -234 7 -7
195 97 282 156 55 38 71 55 76 79 l6 32 -101 -1 c-55 0 -127 -6 -158 -13z
m171 -20 c-12 -12 -153 -105 -155 -103 -1 1 2 23 7 49 10 44 12 47 47 51 58 6
106 7 101 3z"/>
<path d="M2055 1926 c-44 -13 -44 -20 -2 -55 24 -20 30 -22 38 -10 5 8 9 22 9
31 0 9 3 23 6 32 7 18 3 19 -51 2z"/>
<path d="M1146 1743 c-25 -70 -33 -183 -15 -183 27 0 163 161 148 174 -2 2
-26 14 -54 27 -27 13 -53 25 -56 26 -4 2 -14 -18 -23 -44z m69 -17 c18 -13 18
-15 -8 -50 -44 -57 -57 -47 -36 27 11 41 16 44 44 23z"/>
<path d="M775 1944 c-44 -8 -84 -19 -88 -23 -11 -11 -39 -142 -33 -148 3 -3
48 15 100 40 105 50 219 125 210 138 -8 13 -97 9 -189 -7z m45 -45 c-14 -11
-37 -26 -52 -34 -26 -14 -26 -14 -19 13 6 21 15 28 42 33 54 10 55 10 29 -12z"/>
<path d="M4080 3055 l-19 -45 -66 0 c-36 0 -65 -4 -65 -9 0 -4 19 -29 42 -56
l41 -47 -31 -64 c-50 -101 -40 -119 32 -61 64 52 62 52 115 8 73 -62 83 -55
56 35 -8 27 -15 54 -15 61 0 7 29 28 65 48 36 20 65 43 65 50 0 9 -24 15 -79
20 l-79 7 -12 49 c-7 27 -16 49 -21 49 -5 0 -18 -20 -29 -45z m76 -105 c45 0
51 -16 13 -35 -29 -16 -31 -19 -25 -57 l7 -40 -31 22 -30 21 -30 -21 c-33 -23
-38 -14 -15 29 13 27 13 31 -6 55 l-20 26 30 0 c24 0 34 6 44 27 l12 27 9 -27
c8 -22 16 -27 42 -27z"/>
<path d="M2064 2943 c-32 -34 -127 -214 -217 -408 -21 -44 -48 -95 -62 -114
-13 -18 -27 -49 -31 -68 -6 -30 -2 -39 30 -72 20 -20 36 -46 36 -57 0 -57 73
-87 104 -43 14 20 16 20 37 5 24 -17 66 -21 85 -8 24 17 76 102 90 147 8 27
23 59 34 70 31 33 49 115 39 177 -5 33 -4 77 2 115 11 62 9 92 -9 202 -16 95
-78 120 -138 54z m96 -61 c0 -42 -20 -187 -36 -265 -5 -26 -4 -28 16 -22 29 9
40 -8 40 -62 0 -37 -4 -45 -37 -69 -54 -39 -60 -49 -67 -102 -13 -90 -35 -150
-57 -157 -13 -5 -27 -1 -37 8 -13 14 -14 26 -3 88 6 39 10 74 7 76 -3 3 -30
-6 -60 -20 -38 -18 -59 -34 -66 -51 -11 -29 -28 -34 -36 -11 -4 8 -12 15 -19
15 -7 0 -15 6 -18 13 -6 16 19 76 42 102 10 11 39 70 66 130 75 173 154 323
190 361 29 30 37 34 54 24 17 -8 21 -20 21 -58z"/>
<path d="M1995 2650 l-87 -173 49 28 c77 44 81 51 109 184 14 68 23 125 20
128 -3 3 -44 -72 -91 -167z"/>
</g>
</svg>
