<?xml version="1.0" standalone="no"?>
<!DOCTYPE svg PUBLIC "-//W3C//DTD SVG 20010904//EN"
 "http://www.w3.org/TR/2001/REC-SVG-20010904/DTD/svg10.dtd">
<svg version="1.0" xmlns="http://www.w3.org/2000/svg"
 width="500.000000pt" height="500.000000pt" viewBox="0 0 500.000000 500.000000"
 preserveAspectRatio="xMidYMid meet">

<g transform="translate(0.000000,500.000000) scale(0.100000,-0.100000)"
fill="#ffffff" stroke="none">
<path d="M2432 3890 c-1 -14 -5 -35 -8 -47 -6 -20 -3 -23 22 -22 16 1 21 3 12
6 -12 3 -18 17 -21 46 -2 23 -4 31 -5 17z"/>
<path d="M2250 3881 c0 -10 -3 -34 -6 -52 -6 -31 -5 -33 8 -15 10 13 22 17 37
13 26 -6 26 -3 0 39 -23 38 -39 44 -39 15z m30 -27 c0 -8 -4 -14 -10 -14 -5 0
-10 9 -10 21 0 11 5 17 10 14 6 -3 10 -13 10 -21z"/>
<path d="M2527 3893 c-15 -25 -18 -76 -6 -84 23 -14 35 -9 15 6 -21 16 -13 37
12 29 15 -5 15 -4 -2 10 -20 16 -12 41 11 32 8 -3 11 -1 8 4 -7 12 -32 13 -38
3z"/>
<path d="M2133 3863 c-7 -2 -13 -13 -13 -24 0 -14 7 -19 30 -19 34 0 42 -26
10 -33 -17 -4 -16 -4 2 -3 36 2 31 40 -5 44 -29 4 -33 28 -4 26 9 -1 14 2 11
7 -6 10 -12 10 -31 2z"/>
<path d="M2617 3843 c-4 -3 -7 -19 -7 -35 0 -39 42 -60 68 -34 15 15 15 18 2
26 -8 5 -19 10 -25 10 -5 0 -3 -5 5 -10 20 -12 0 -33 -24 -24 -11 4 -16 15
-14 33 4 32 32 39 59 15 20 -18 27 -6 7 14 -13 13 -60 16 -71 5z"/>
<path d="M2010 3794 c-10 -11 -11 -23 -4 -42 17 -48 84 -38 84 12 0 43 -53 63
-80 30z m60 -9 c18 -22 8 -50 -19 -50 -32 0 -49 28 -32 49 17 20 35 20 51 1z"/>
<path d="M2731 3759 c-18 -24 -20 -33 -11 -45 7 -8 18 -14 24 -14 6 0 3 5 -7
11 -14 8 -16 14 -6 25 9 12 15 12 28 2 14 -12 14 -11 3 4 -20 25 -6 41 21 26
20 -10 21 -10 8 5 -20 24 -34 21 -60 -14z"/>
<path d="M1910 3704 c-11 -13 -9 -20 18 -46 26 -27 33 -29 46 -18 22 17 20 42
-4 63 -25 21 -44 22 -60 1z m40 -3 c0 -14 -18 -23 -30 -16 -6 4 -8 11 -5 16 8
12 35 12 35 0z m30 -37 c0 -14 -21 -19 -33 -7 -9 9 13 34 24 27 5 -3 9 -12 9
-20z"/>
<path d="M2810 3694 c-17 -15 -28 -29 -25 -32 3 -3 17 5 31 19 24 22 26 22 21
4 -3 -11 -9 -33 -13 -49 l-7 -29 37 28 c20 15 36 32 36 38 0 6 -12 0 -26 -14
l-26 -24 7 43 c4 23 4 42 2 42 -3 0 -20 -12 -37 -26z"/>
<path d="M1839 3609 c-12 -23 -10 -26 46 -56 l30 -16 -19 22 c-19 21 -19 21
10 22 26 0 27 1 8 9 -12 4 -24 15 -27 24 -9 23 -34 20 -48 -5z m41 -2 c0 -19
-10 -27 -25 -20 -17 6 -8 33 11 33 8 0 14 -6 14 -13z"/>
<path d="M2893 3598 c-39 -24 -42 -42 -9 -63 45 -30 82 13 60 69 -8 20 -11 19
-51 -6z m47 -28 c0 -25 -29 -41 -52 -29 -25 14 -22 26 9 43 32 16 43 13 43
-14z"/>
<path d="M1786 3501 c-3 -5 10 -21 28 -35 38 -29 55 -34 37 -12 -10 12 -8 19
8 35 l21 21 -44 0 c-25 0 -47 -4 -50 -9z m54 -16 c0 -8 -4 -15 -9 -15 -5 0
-14 7 -21 15 -10 13 -9 15 9 15 12 0 21 -6 21 -15z"/>
<path d="M2957 3484 c-4 -4 -7 -18 -7 -31 0 -16 -5 -23 -12 -20 -7 2 -12 15
-10 28 2 17 0 21 -9 12 -16 -16 -1 -53 21 -53 13 0 20 8 22 27 4 34 25 41 31
11 5 -21 5 -21 4 2 -2 24 -26 38 -40 24z"/>
<path d="M4463 3419 c-109 -21 -207 -92 -220 -158 l-6 -36 -17 37 c-22 49 -47
76 -94 100 -33 17 -53 20 -120 16 -136 -8 -220 -58 -271 -163 l-23 -48 -7 33
c-11 48 -67 105 -119 120 -35 10 -74 10 -183 0 -76 -6 -141 -15 -144 -18 -8
-9 -72 -533 -65 -539 12 -12 315 25 357 44 57 25 106 75 134 135 l22 47 12
-39 c16 -53 63 -106 108 -121 51 -17 188 -6 245 19 48 21 102 73 130 125 l17
32 -5 -35 c-3 -19 -7 -40 -9 -47 -10 -31 71 -63 161 -63 210 0 331 93 311 240
-6 49 -37 92 -79 113 l-33 17 47 0 c41 0 48 3 52 23 26 122 26 121 3 139 -23
18 -102 39 -140 37 -12 -1 -41 -5 -64 -10z m137 -29 c57 -16 59 -19 48 -76
-10 -49 -12 -52 -47 -58 -76 -12 -91 -9 -91 23 0 29 -22 61 -41 61 -18 0 -59
-49 -59 -69 0 -11 7 -27 16 -35 16 -16 27 -20 99 -31 92 -15 130 -62 123 -150
-6 -68 -34 -107 -100 -135 -70 -30 -225 -40 -279 -17 l-37 15 10 53 c5 30 10
55 11 55 1 1 30 4 64 7 l62 5 7 -32 c8 -40 22 -56 47 -56 31 0 57 29 57 65 0
41 -11 50 -90 70 -81 21 -108 38 -126 80 -28 67 8 146 84 188 80 43 171 57
242 37z m-480 -55 c84 -42 116 -182 71 -310 -43 -121 -108 -165 -255 -172 -83
-5 -94 -3 -126 19 -55 37 -75 88 -75 188 0 91 22 160 68 208 71 77 230 110
317 67z m360 -60 c0 -38 0 -38 -24 -29 -19 7 -21 35 -4 52 20 20 28 14 28 -23z
m-845 -17 c114 -124 46 -381 -113 -432 -45 -14 -291 -41 -299 -33 -5 6 55 479
63 486 9 10 131 19 227 17 88 -1 89 -1 122 -38z m634 -142 c9 -10 33 -27 54
-36 l39 -17 -64 -5 c-35 -3 -64 -5 -64 -4 -1 1 1 26 4 56 3 30 7 48 10 40 2
-8 12 -24 21 -34z m179 -75 c21 -13 11 -56 -13 -56 -15 0 -21 8 -23 33 -3 33
9 41 36 23z"/>
<path d="M3979 3290 c-61 -35 -101 -312 -55 -376 13 -17 15 -17 39 -1 51 33
93 250 68 345 -12 42 -23 49 -52 32z m31 -103 c0 -85 -23 -200 -46 -236 -16
-24 -18 -24 -25 -6 -20 53 1 227 36 294 23 46 35 29 35 -52z"/>
<path d="M3452 3242 c-8 -5 -20 -67 -32 -158 -11 -82 -22 -166 -25 -186 -4
-32 -2 -38 14 -38 31 0 68 38 86 87 10 28 19 94 22 158 5 96 3 113 -11 128
-19 19 -34 21 -54 9z m38 -107 c0 -117 -30 -245 -58 -245 -7 0 23 287 33 318
2 6 9 12 15 12 6 0 10 -33 10 -85z"/>
<path d="M1753 3385 c-10 -27 5 -45 37 -45 16 0 33 0 38 0 4 0 7 12 7 28 0 24
-4 27 -38 29 -26 2 -40 -3 -44 -12z m35 -12 c-4 -22 -22 -20 -26 1 -2 10 3 16
13 16 10 0 15 -7 13 -17z m42 -9 c0 -8 -7 -14 -15 -14 -15 0 -21 21 -9 33 10
9 24 -2 24 -19z"/>
<path d="M3110 3298 c-52 -5 -97 -12 -99 -14 -6 -5 -71 -537 -67 -541 6 -7
195 10 207 18 8 5 24 101 45 266 39 302 37 283 22 282 -7 -1 -56 -6 -108 -11z
m86 -55 c-3 -16 -17 -122 -32 -238 -14 -115 -29 -213 -32 -216 -4 -4 -42 -10
-85 -13 l-78 -7 6 33 c6 41 55 431 55 446 0 15 24 19 103 21 l69 1 -6 -27z"/>
<path d="M2874 3273 c-20 -4 -23 -15 -34 -119 -8 -62 -16 -114 -19 -114 -4 0
-22 50 -40 111 l-35 111 -85 -6 c-111 -9 -141 -15 -141 -29 0 -8 -3 -7 -9 1
-7 11 -50 10 -251 -7 -134 -12 -244 -22 -245 -23 -1 -2 -18 -46 -38 -98 -20
-52 -42 -108 -48 -125 -11 -28 -13 -22 -33 90 l-21 120 -55 -3 c-59 -3 -274
-23 -277 -26 -1 -1 -8 -52 -16 -114 -9 -63 -17 -115 -19 -118 -3 -2 -19 46
-38 107 -18 60 -36 112 -40 114 -4 3 -52 0 -106 -5 -55 -5 -187 -17 -294 -26
-107 -9 -198 -20 -202 -23 -10 -9 -73 -530 -65 -537 7 -8 488 34 497 42 3 3
12 60 20 127 l16 122 40 -120 c38 -110 43 -120 65 -118 13 1 63 5 111 8 l86 7
6 31 c3 18 15 114 27 215 13 101 26 177 29 170 4 -7 20 -102 35 -211 l29 -198
25 5 c14 3 65 8 112 12 l87 6 83 229 c46 125 85 227 87 224 2 -2 -8 -101 -23
-220 -14 -119 -25 -219 -22 -221 2 -2 71 3 153 11 82 7 192 17 244 21 52 3 98
8 101 10 4 2 12 56 19 119 7 63 16 115 19 115 4 0 23 -48 42 -107 l36 -108
109 3 c60 2 111 5 113 8 4 4 69 497 71 532 0 12 -57 15 -106 5z m72 -60 c-3
-21 -18 -130 -32 -243 -14 -113 -27 -206 -29 -208 -1 -1 -41 -6 -88 -10 l-86
-8 -58 165 c-31 90 -58 160 -59 155 -2 -5 -10 -70 -19 -144 -23 -199 -21 -190
-61 -190 -30 0 -34 3 -29 23 2 12 16 121 31 242 14 121 26 221 27 222 1 0 43
4 92 8 l91 7 53 -168 c30 -93 55 -164 57 -159 1 6 10 69 18 140 27 220 22 205
63 205 35 0 35 0 29 -37z m-468 -30 c-3 -27 -6 -28 -80 -37 -86 -9 -79 -1 -93
-108 l-6 -47 65 6 c56 5 66 3 66 -10 0 -34 -12 -47 -45 -47 -18 0 -46 -3 -63
-6 -29 -6 -31 -9 -37 -68 -3 -33 -9 -69 -12 -80 -5 -18 -1 -18 76 -12 l82 7
-7 -28 c-4 -15 -8 -29 -9 -31 -3 -4 -309 -31 -313 -28 -3 3 57 488 61 492 3 2
221 21 275 22 42 2 43 1 40 -25z m-373 -20 c-3 -10 -44 -121 -91 -247 -46
-126 -86 -231 -89 -235 -11 -10 -170 -20 -175 -10 -10 15 -72 461 -65 467 7 8
158 23 164 16 2 -2 16 -75 30 -161 l27 -158 48 130 c83 221 80 215 122 215 30
0 35 -3 29 -17z m402 -15 c-3 -7 -5 -2 -5 12 0 14 2 19 5 13 2 -7 2 -19 0 -25z
m-871 -25 c-2 -10 -17 -120 -32 -245 l-27 -227 -26 -5 c-14 -3 -55 -6 -90 -8
l-64 -3 -58 165 c-32 91 -58 161 -58 155 -1 -5 -10 -80 -21 -165 -11 -85 -20
-158 -20 -162 0 -8 -59 -22 -66 -15 -4 4 53 488 59 493 1 1 42 4 92 5 l89 4
50 -157 c27 -87 53 -158 56 -158 4 0 14 71 25 158 10 86 22 163 28 170 5 6 23
12 39 12 23 0 28 -4 24 -17z m864 -5 c1 -33 -34 -294 -39 -300 -3 -3 -40 -9
-82 -13 l-76 -7 4 33 c9 78 8 76 73 81 33 2 61 6 64 9 2 2 7 28 11 58 l7 54
-66 -7 -66 -7 6 43 c4 24 8 45 10 47 3 3 42 9 142 20 6 0 12 -5 12 -11z
m-1335 -45 c-9 -38 -20 -43 -92 -43 -70 0 -67 3 -79 -94 l-7 -58 64 3 c63 4
64 4 60 -21 -4 -33 -17 -40 -78 -40 l-51 0 -6 -37 c-3 -21 -8 -58 -12 -83 l-6
-45 77 3 77 4 -4 -28 -3 -29 -153 -14 c-84 -7 -156 -11 -158 -8 -7 6 48 463
56 478 5 8 163 28 304 38 15 1 17 -4 11 -26z m32 -15 c-3 -8 -6 -5 -6 6 -1 11
2 17 5 13 3 -3 4 -12 1 -19z m-31 -238 c-13 -102 -24 -171 -25 -153 -1 30 -3
31 -33 28 -120 -15 -120 -15 -114 8 3 12 6 36 6 54 0 31 0 31 66 38 71 8 70 7
78 76 l5 47 -65 -6 -66 -5 7 44 c4 24 8 44 9 45 5 5 152 18 153 14 2 -3 -8
-88 -21 -190z m1291 -77 c-3 -10 -5 -4 -5 12 0 17 2 24 5 18 2 -7 2 -21 0 -30z"/>
<path d="M653 3080 c-40 -3 -74 -8 -76 -11 -2 -2 -12 -71 -21 -154 -10 -82
-19 -156 -22 -164 -3 -9 -12 0 -24 23 -19 37 -19 38 2 77 15 29 19 51 15 80
-12 88 -61 119 -184 118 -79 0 -231 -13 -238 -20 -6 -7 -70 -538 -65 -542 3
-2 75 2 160 10 136 12 162 17 215 43 34 17 70 43 83 62 l23 33 -7 -58 c-6 -57
-6 -58 17 -53 13 3 63 8 112 11 48 4 87 9 87 12 0 11 60 489 65 516 5 31 3 31
-142 17z m83 -262 c-16 -134 -30 -244 -31 -246 -4 -6 -165 -17 -165 -12 0 11
50 413 56 452 6 40 5 40 135 46 l35 2 -30 -242z m-320 201 c53 -14 84 -48 84
-96 0 -42 -23 -89 -52 -104 l-22 -12 27 -13 c35 -19 47 -43 47 -95 0 -79 -59
-135 -165 -157 -27 -6 -98 -14 -157 -18 -102 -6 -108 -6 -107 12 1 38 55 463
60 468 2 2 54 9 114 14 61 5 114 10 118 11 5 0 28 -4 53 -10z"/>
<path d="M286 2953 c-2 -10 -7 -44 -11 -75 -6 -57 -6 -58 19 -58 48 0 81 93
47 134 -18 21 -48 20 -55 -1z m44 -47 c0 -12 -7 -31 -16 -42 -15 -18 -15 -17
-10 15 3 18 6 40 6 48 0 8 5 11 10 8 6 -3 10 -16 10 -29z"/>
<path d="M257 2728 c-3 -18 -9 -59 -13 -90 -6 -55 -5 -58 15 -58 51 0 94 86
74 147 -7 21 -17 29 -40 31 -28 3 -31 0 -36 -30z m50 -44 c-2 -25 -13 -53 -22
-63 -17 -15 -17 -14 -11 18 3 18 6 46 6 62 0 20 5 29 16 29 14 0 16 -8 11 -46z"/>
<path d="M4734 2711 c-72 -18 -120 -56 -162 -131 -12 -23 -13 -18 -7 44 l7 69
-89 -8 c-48 -4 -90 -9 -91 -10 -2 -2 -13 -80 -24 -174 -23 -188 -19 -181 -100
-181 -24 0 -38 5 -38 13 0 6 9 82 20 167 11 85 20 158 20 161 0 9 -152 -2
-171 -12 -13 -6 -19 -30 -24 -89 -4 -44 -11 -80 -16 -80 -5 0 -9 9 -9 20 0 35
-31 85 -68 110 -74 51 -247 21 -308 -54 l-25 -31 6 44 7 44 -93 -7 c-52 -3
-122 -9 -156 -13 -73 -7 -64 14 -89 -211 -10 -84 -21 -147 -25 -140 -3 7 -19
81 -34 165 -16 84 -31 156 -34 162 -5 8 -178 -2 -185 -11 -2 -2 -37 -97 -79
-213 -41 -115 -78 -218 -82 -227 -6 -15 -1 -18 28 -18 62 0 83 14 97 64 7 25
18 46 25 46 7 0 26 3 43 6 29 6 30 5 37 -45 l7 -52 72 6 c39 4 112 10 163 16
51 5 98 9 106 9 10 0 17 26 25 91 6 51 13 94 16 96 3 3 29 6 58 7 45 1 53 -2
56 -19 9 -57 35 -105 68 -126 30 -18 46 -20 128 -17 86 3 98 6 137 33 27 19
54 51 72 85 22 42 28 48 24 25 -14 -73 -18 -125 -10 -125 4 0 114 9 243 20
129 11 236 20 236 20 1 0 8 53 15 118 l13 117 8 -59 c15 -113 63 -156 177
-156 89 0 139 17 188 66 84 85 100 263 29 343 -41 46 -124 63 -212 42z m172
-36 c14 -9 35 -37 46 -63 37 -84 5 -229 -63 -286 -35 -30 -125 -50 -191 -44
-90 9 -139 93 -124 210 14 103 67 167 166 199 38 13 137 3 166 -16z m-363 -25
c-1 -8 -11 -99 -24 -201 l-22 -187 -65 -6 c-35 -4 -66 -5 -69 -3 -3 4 27 267
43 369 6 37 6 37 57 41 72 5 82 3 80 -13z m-303 -27 c0 -10 -9 -88 -20 -173
-11 -85 -20 -156 -20 -157 0 -1 30 1 66 4 l66 6 -7 -24 c-4 -13 -9 -26 -12
-29 -2 -2 -60 -9 -129 -15 -121 -10 -124 -10 -123 10 0 11 10 101 22 200 l23
180 29 6 c17 4 47 7 68 8 29 1 37 -3 37 -16z m-272 -30 c42 -26 62 -72 62
-144 0 -175 -92 -261 -264 -247 -62 5 -91 24 -112 75 -17 38 -18 133 -3 186
19 69 90 132 169 148 46 9 119 1 148 -18z m-338 -27 c0 -23 -5 -25 -64 -31
-61 -7 -64 -8 -70 -37 -3 -17 -6 -42 -6 -57 0 -25 2 -26 50 -23 47 4 50 3 50
-21 0 -22 -5 -25 -50 -29 -28 -3 -53 -7 -56 -10 -2 -3 -10 -46 -16 -95 l-11
-91 -65 -6 c-35 -4 -66 -5 -69 -3 -4 4 44 398 49 402 2 2 55 7 118 12 63 6
121 11 128 11 6 1 12 -9 12 -22z m-378 -210 c29 -147 35 -192 25 -198 -6 -4
-40 -8 -74 -8 l-62 0 -7 45 c-6 44 -7 45 -44 45 -65 0 -86 -13 -100 -64 -11
-41 -16 -46 -41 -46 -16 0 -29 3 -29 8 0 4 32 96 71 204 80 221 68 207 179
204 l44 -1 38 -189z m1305 172 c-3 -8 -6 -5 -6 6 -1 11 2 17 5 13 3 -3 4 -12
1 -19z m-922 -40 c-4 -18 -9 -34 -10 -36 -2 -2 -29 -6 -61 -9 -52 -6 -57 -4
-51 11 4 10 7 26 7 36 0 16 9 20 53 23 28 2 56 4 60 5 5 1 5 -13 2 -30z"/>
<path d="M4750 2607 c-26 -58 -43 -182 -32 -233 6 -30 13 -40 30 -42 31 -5 59
62 72 165 12 98 3 147 -28 151 -18 3 -26 -5 -42 -41z m48 -74 c-5 -94 -29
-183 -49 -183 -12 0 -11 135 2 190 10 44 33 90 46 90 3 0 3 -44 1 -97z"/>
<path d="M3826 2548 c-24 -37 -46 -137 -46 -208 0 -180 95 -92 107 99 6 91 -4
131 -32 131 -8 0 -21 -10 -29 -22z m44 -56 c0 -102 -41 -243 -61 -211 -19 30
4 212 32 245 17 21 29 7 29 -34z"/>
<path d="M3057 2368 c-15 -44 -27 -81 -25 -83 2 -1 22 0 44 3 l41 4 -14 76
c-8 43 -16 78 -17 79 -1 1 -14 -35 -29 -79z m33 -44 c0 -8 -6 -14 -14 -14 -9
0 -12 7 -9 20 6 22 23 18 23 -6z"/>
<path d="M2740 2535 c-69 -6 -131 -15 -138 -19 -7 -4 -12 -23 -12 -42 0 -40
-6 -42 -31 -10 -32 41 -74 49 -205 36 -64 -6 -120 -13 -124 -15 -4 -3 -11 -37
-14 -77 -4 -40 -11 -89 -16 -108 l-8 -35 -1 41 c-3 123 -92 188 -224 165 -70
-12 -137 -49 -167 -91 l-22 -30 -22 32 c-32 49 -91 61 -226 47 -57 -5 -106
-11 -107 -13 -6 -6 -55 -437 -50 -442 3 -3 44 -3 91 1 l85 7 6 57 c9 76 11 81
38 81 36 0 88 20 124 47 l33 24 6 -40 c8 -50 35 -95 71 -118 20 -14 47 -18
108 -18 127 1 200 47 240 151 l15 39 -6 -55 c-3 -30 -8 -68 -11 -84 l-5 -29
88 8 c49 4 92 9 97 12 4 2 7 21 7 41 0 62 14 66 35 11 l20 -51 90 7 c50 4 92
9 94 11 3 3 -15 45 -39 94 l-44 90 29 30 c22 23 29 41 33 85 l4 55 49 0 c33 0
49 -4 49 -12 0 -7 -9 -83 -20 -168 -11 -85 -20 -159 -20 -164 0 -8 170 1 179
10 2 1 13 81 25 176 l21 173 53 9 c43 8 52 13 52 30 0 12 3 31 6 44 6 21 4 22
-52 21 -33 -1 -115 -7 -184 -14z m210 -30 c0 -21 -5 -25 -32 -26 -72 -1 -71 1
-94 -188 -12 -95 -23 -173 -25 -175 -2 -2 -32 -6 -66 -9 -58 -5 -63 -4 -63 15
0 23 27 256 36 307 l5 34 -50 -7 c-47 -6 -51 -5 -51 14 0 27 9 30 158 45 190
19 182 19 182 -10z m-408 -55 c35 -43 18 -116 -37 -162 -20 -16 -20 -17 23
-103 24 -48 42 -88 40 -90 -2 -1 -33 -5 -69 -8 l-67 -6 -32 77 c-17 42 -35 81
-40 85 -4 5 -11 -27 -15 -70 -4 -44 -10 -84 -13 -90 -4 -5 -35 -13 -69 -16
-60 -5 -63 -4 -63 16 1 39 46 376 51 381 10 10 195 21 234 15 22 -4 47 -17 57
-29z m-436 -19 c95 -58 79 -288 -25 -356 -21 -14 -65 -29 -107 -36 -65 -10
-75 -10 -118 9 -58 26 -76 64 -76 162 0 111 40 182 125 221 55 26 159 26 201
0z m-389 -36 c29 -20 47 -78 38 -122 -13 -73 -55 -107 -155 -128 l-54 -11 -11
-64 -10 -65 -65 -7 c-35 -4 -65 -6 -66 -5 -1 1 8 88 22 192 13 105 24 195 24
202 0 24 244 31 277 8z"/>
<path d="M2376 2413 c-2 -16 -8 -50 -11 -76 -6 -48 -6 -49 17 -42 36 11 47 24
54 61 10 52 -2 84 -30 84 -19 0 -26 -7 -30 -27z m44 -25 c-1 -13 -7 -34 -15
-48 l-14 -25 -1 25 c0 35 11 70 21 70 5 0 9 -10 9 -22z"/>
<path d="M1977 2398 c-31 -24 -50 -90 -55 -193 -4 -81 -2 -103 11 -113 38 -32
74 32 90 159 15 120 -3 179 -46 147z m22 -149 c-9 -77 -34 -144 -49 -134 -25
15 1 215 33 253 18 23 27 -37 16 -119z"/>
<path d="M1575 2358 c-8 -25 -25 -171 -20 -176 11 -11 56 19 65 44 12 31 16
117 6 133 -10 15 -46 14 -51 -1z m35 -57 c0 -41 -17 -98 -26 -88 -8 8 8 127
17 127 5 0 9 -18 9 -39z"/>
<path d="M1130 2391 l-35 -6 -27 -220 c-14 -121 -24 -222 -22 -224 2 -2 43 0
91 5 l88 9 21 175 c12 96 25 196 28 223 l7 47 -58 -1 c-32 -1 -74 -4 -93 -8z
m120 -38 c-1 -16 -11 -107 -23 -203 l-22 -175 -65 -6 c-36 -4 -67 -5 -69 -3
-2 1 8 92 21 201 l24 198 39 6 c86 13 95 12 95 -18z"/>
<path d="M980 2383 c-108 -8 -106 -6 -141 -93 -18 -44 -36 -80 -40 -80 -3 0
-10 24 -13 53 -14 107 -5 100 -115 92 -53 -4 -97 -9 -99 -10 -6 -5 -58 -446
-53 -450 3 -2 27 -1 53 2 l47 5 7 71 c7 76 16 71 29 -17 l7 -46 60 0 59 0 35
73 34 72 -6 -55 c-3 -30 -8 -61 -10 -69 -4 -11 5 -12 42 -7 26 3 63 6 83 6 20
0 42 4 49 9 9 5 22 72 37 197 13 104 26 204 29 222 5 35 14 33 -94 25z m70
-30 c0 -5 -11 -93 -24 -197 -16 -125 -29 -192 -38 -197 -7 -5 -39 -9 -71 -9
l-58 0 6 33 c10 60 26 209 23 213 -2 2 -28 -53 -58 -122 -29 -69 -61 -129 -71
-135 -10 -5 -31 -9 -47 -9 l-29 0 -24 131 c-26 147 -29 145 -49 -28 l-13 -113
-29 0 c-29 0 -29 1 -23 43 3 23 14 111 24 195 10 84 22 156 25 160 7 6 148 22
154 17 1 -1 10 -44 19 -96 9 -52 19 -97 23 -101 3 -5 26 40 51 100 43 102 47
107 80 113 50 9 129 10 129 2z"/>
<path d="M195 2311 l-50 -6 -72 -200 c-40 -110 -73 -213 -73 -228 0 -27 1 -28
47 -25 46 3 46 3 63 53 16 48 18 50 57 53 l41 3 7 -47 7 -47 96 7 c53 4 98 8
99 9 1 2 -71 368 -82 415 -6 24 -29 26 -140 13z m120 -33 c14 -61 75 -372 72
-374 -1 -1 -34 -5 -74 -9 l-72 -7 -7 52 c-7 51 -7 52 -37 46 -16 -3 -42 -6
-57 -6 -24 0 -30 -7 -47 -52 -18 -46 -24 -53 -50 -56 l-31 -3 69 191 c38 105
74 200 79 210 7 14 24 20 63 23 28 2 60 4 69 5 11 1 20 -7 23 -20z"/>
<path d="M160 2123 c-13 -37 -25 -74 -28 -80 -3 -9 9 -13 38 -13 l43 0 -7 61
c-12 104 -19 109 -46 32z m22 -65 c-15 -15 -24 -6 -16 16 5 12 10 14 17 7 8
-8 8 -14 -1 -23z"/>
</g>
</svg>
